<svg width="44" height="45" viewBox="0 0 44 45" fill="none" xmlns="http://www.w3.org/2000/svg">
<rect y="0.5" width="44" height="44" rx="22" fill="#2ECC71"/>
<path d="M16.103 13.7336C16.4145 13.4221 16.9195 13.4221 17.231 13.7336L19.4869 15.9895C19.7984 16.301 19.7984 16.806 19.4869 17.1175L17.3334 19.2709C17.975 20.7344 18.8439 22.3594 20.2103 23.7257C21.7459 25.2614 23.6894 26.2498 25.3827 27.013L27.3825 25.0131C27.694 24.7016 28.199 24.7016 28.5105 25.0131L30.7664 27.269C31.0779 27.5805 31.0779 28.0855 30.7664 28.397L28.5105 30.6529C28.4193 30.7441 28.3114 30.8086 28.1967 30.8464C25.65 32.4674 20.9605 30.9985 17.231 27.269C13.5015 23.5395 12.0326 18.85 13.6536 16.3033C13.6914 16.1886 13.7559 16.0807 13.8471 15.9895L16.103 13.7336Z" stroke="white" stroke-width="2"/>
</svg>
