<svg width="24" height="24" viewBox="0 0 24 24" fill="none" xmlns="http://www.w3.org/2000/svg">
<path fill-rule="evenodd" clip-rule="evenodd" d="M16 13C16 15.2091 14.2091 17 12 17C9.79086 17 8 15.2091 8 13C8 10.7909 9.79086 9 12 9C14.2091 9 16 10.7909 16 13ZM14 13C14 14.1046 13.1046 15 12 15C10.8954 15 10 14.1046 10 13C10 11.8954 10.8954 11 12 11C13.1046 11 14 11.8954 14 13Z" fill="white"/>
<path fill-rule="evenodd" clip-rule="evenodd" d="M15 4C15.6295 4 16.2223 4.29639 16.6 4.8L19 8H20C21.1046 8 22 8.89543 22 10V19C22 20.1046 21.1046 21 20 21H4C2.89543 21 2 20.1046 2 19V10C2 8.89543 2.89543 8 4 8H5L7.4 4.8C7.77771 4.29639 8.37049 4 9 4H15ZM6 10L9 6L15 6L18 10H20V19H4V10H6Z" fill="white"/>
</svg>
