<svg width="20" height="15" viewBox="0 0 20 15" fill="none" xmlns="http://www.w3.org/2000/svg">
<path d="M5 8C4.44772 8 4 8.44772 4 9C4 9.55229 4.44772 10 5 10H8C8.55228 10 9 9.55229 9 9C9 8.44772 8.55228 8 8 8H5Z" fill="white"/>
<path fill-rule="evenodd" clip-rule="evenodd" d="M0 12C0 13.6569 1.34315 15 3 15H17C18.6569 15 20 13.6569 20 12V3C20 1.34315 18.6569 0 17 0H3C1.34315 0 0 1.34315 0 3V12ZM3 2C2.44772 2 2 2.44772 2 3V4H18V3C18 2.44771 17.5523 2 17 2H3ZM17 13C17.5523 13 18 12.5523 18 12V6H2V12C2 12.5523 2.44772 13 3 13H17Z" fill="white"/>
</svg>
