<svg width="20" height="18" viewBox="0 0 20 18" fill="none" xmlns="http://www.w3.org/2000/svg">
<path fill-rule="evenodd" clip-rule="evenodd" d="M0 10C0 4.47715 4.47715 0 10 0C15.5228 0 20 4.47715 20 10V18H16C14.3431 18 13 16.6569 13 15V13C13 11.3431 14.3431 10 16 10H18C18 5.58172 14.4183 2 10 2C5.58172 2 2 5.58172 2 10H4C5.65685 10 7 11.3431 7 13V15C7 16.6569 5.65685 18 4 18H0V10ZM2 16H4C4.55228 16 5 15.5523 5 15V13C5 12.4477 4.55228 12 4 12H2V16ZM18 12V16H16C15.4477 16 15 15.5523 15 15V13C15 12.4477 15.4477 12 16 12H18Z" fill="white"/>
</svg>
