<svg width="17" height="20" viewBox="0 0 17 20" fill="none" xmlns="http://www.w3.org/2000/svg">
<path d="M2.35615 12.518C3.06989 13.7084 3.99731 14.8552 4.958 15.8778C3.97584 14.8323 3.06012 13.6899 2.36035 12.525C2.35895 12.5227 2.35755 12.5203 2.35615 12.518ZM2.35615 12.518C1.66387 11.3641 1.14849 10.1299 1.03754 8.90946C1.14601 10.1026 1.64502 11.332 2.35615 12.518ZM11 8C11 9.65685 9.65686 11 8 11C6.34315 11 5 9.65685 5 8C5 6.34315 6.34315 5 8 5C9.65686 5 11 6.34315 11 8ZM11.1253 15.8778C12.1074 14.8323 13.0232 13.6899 13.7229 12.525C14.4173 11.369 14.9346 10.1324 15.0458 8.90946C14.8284 11.3002 13.0431 13.8362 11.1253 15.8778Z" stroke="white" stroke-width="2"/>
</svg>
