<svg width="24" height="24" viewBox="0 0 24 24" fill="none" xmlns="http://www.w3.org/2000/svg">
<path d="M6.66667 2C5.19391 2 4 3.22104 4 4.72727V8.81818C4 9.32026 4.39797 9.72727 4.88889 9.72727C5.37981 9.72727 5.77778 9.32026 5.77778 8.81818V4.72727C5.77778 4.2252 6.17575 3.81818 6.66667 3.81818H17.3333C17.8243 3.81818 18.2222 4.2252 18.2222 4.72727V19.2727C18.2222 19.7748 17.8243 20.1818 17.3333 20.1818H6.66667C6.17575 20.1818 5.77778 19.7748 5.77778 19.2727V15.6364C5.77778 15.1343 5.37981 14.7273 4.88889 14.7273C4.39797 14.7273 4 15.1343 4 15.6364V19.2727C4 20.779 5.19391 22 6.66667 22H17.3333C18.8061 22 20 20.779 20 19.2727V4.72727C20 3.22104 18.8061 2 17.3333 2H6.66667Z" fill="white"/>
<path d="M10.8508 6.81172C10.5036 6.4567 9.94082 6.4567 9.59368 6.81172C9.24655 7.16674 9.24655 7.74235 9.59368 8.09737L12.5207 11.0909H4.88889C4.39797 11.0909 4 11.4979 4 12C4 12.5021 4.39797 12.9091 4.88889 12.9091H12.5207L9.59368 15.9026C9.24655 16.2577 9.24655 16.8333 9.59368 17.1883C9.94082 17.5433 10.5036 17.5433 10.8508 17.1883L15.8791 12.0457L15.8344 12L15.8791 11.9543L10.8508 6.81172Z" fill="white"/>
</svg>
