<svg width="20" height="20" viewBox="0 0 20 20" fill="none" xmlns="http://www.w3.org/2000/svg">
<path fill-rule="evenodd" clip-rule="evenodd" d="M10 20C15.5228 20 20 15.5228 20 10C20 4.47715 15.5228 0 10 0C4.47715 0 0 4.47715 0 10C0 15.5228 4.47715 20 10 20ZM10 18C11.8486 18 13.5508 17.373 14.9054 16.32C12.1832 13.6449 7.8168 13.6449 5.09457 16.32C6.44922 17.373 8.15139 18 10 18ZM18 10C18 11.8488 17.3729 13.5511 16.3197 14.9058C15.0586 13.6617 13.5215 12.8654 11.9071 12.517C13.1537 11.8395 14 10.5186 14 9C14 6.79086 12.2091 5 10 5C7.79086 5 6 6.79086 6 9C6 10.5186 6.84626 11.8395 8.09291 12.517C6.47853 12.8654 4.94143 13.6617 3.68027 14.9058C2.62713 13.5511 2 11.8488 2 10C2 5.58172 5.58172 2 10 2C14.4183 2 18 5.58172 18 10ZM12 9C12 10.1046 11.1046 11 10 11C8.89543 11 8 10.1046 8 9C8 7.89543 8.89543 7 10 7C11.1046 7 12 7.89543 12 9Z" fill="white"/>
</svg>
