<svg width="44" height="44" viewBox="0 0 44 44" fill="none" xmlns="http://www.w3.org/2000/svg">
<rect width="44" height="44" rx="10" fill="#0F1C2A"/>
<path fill-rule="evenodd" clip-rule="evenodd" d="M30.6406 21.1014C31.3483 21.5008 31.3483 22.4992 30.6406 22.8986L14.7678 31.8563C13.8842 32.355 12.8598 31.4668 13.261 30.5497L16.8232 22.408C16.9372 22.1474 16.9372 21.8526 16.8232 21.592L13.261 13.4503C12.8598 12.5332 13.8842 11.645 14.7678 12.1437L30.6406 21.1014ZM16.4662 15.4984L27.9868 22L16.4662 28.5016L18.77 23.2362L21.6175 23.2362C22.2038 23.2362 22.6791 22.7716 22.6791 22.1985C22.6791 21.6255 22.2038 21.1609 21.6175 21.1609L18.9139 21.1609C18.8766 21.0305 18.8304 20.9019 18.7753 20.776L16.4662 15.4984Z" fill="white"/>
</svg>
