<svg width="24" height="24" viewBox="0 0 24 24" fill="none" xmlns="http://www.w3.org/2000/svg">
<path fill-rule="evenodd" clip-rule="evenodd" d="M2.00109 11.9738C1.98745 12.2761 2.10305 12.5721 2.31905 12.7881L10.8928 21.3619C11.7333 22.2024 13.0842 22.2141 13.9102 21.3881L21.3881 13.9102C22.2141 13.0842 22.2024 11.7333 21.3619 10.8928L12.7881 2.31904C12.5721 2.10304 12.2761 1.98745 11.9738 2.00108L2.99924 2.00075C2.45538 2.02529 2.02453 2.45613 2 2.99999L2.00109 11.9738ZM11.6319 4.15401H4.15401L4.15401 11.6319L12.3884 19.8663L19.8663 12.3884L11.6319 4.15401ZM10.0142 7.02299C10.8546 7.86343 10.8663 9.21434 10.0403 10.0403C9.21435 10.8663 7.86344 10.8546 7.02299 10.0142C6.18255 9.17371 6.17083 7.8228 6.99682 6.99681C7.82281 6.17083 9.17372 6.18254 10.0142 7.02299Z" fill="white"/>
</svg>
