<svg width="24" height="24" viewBox="0 0 24 24" fill="none" xmlns="http://www.w3.org/2000/svg">
<path fill-rule="evenodd" clip-rule="evenodd" d="M8.65217 7.78261V4.91304C8.65217 3.8565 9.50867 3 10.5652 3H21.087C22.1435 3 23 3.8565 23 4.91304V16.3913C23 17.4479 22.1435 18.3043 21.087 18.3043C21.087 19.8892 19.8022 21.1739 18.2174 21.1739C16.6326 21.1739 15.3478 19.8892 15.3478 18.3043H8.65217C8.65217 19.8892 7.36743 21.1739 5.78261 21.1739C4.19779 21.1739 2.91304 19.8892 2.91304 18.3043C1.8565 18.3043 1 17.4479 1 16.3913V14.4783C1 13.6884 1.31911 12.9731 1.83543 12.4542C1.85209 12.3114 1.90231 12.1683 1.9914 12.0346L4.25817 8.63449C4.61297 8.10228 5.21028 7.78261 5.84992 7.78261H8.65217ZM10.5652 4.91304H21.087V16.3913H10.5652V4.91304ZM8.65217 9.69565H5.84992L4.57455 11.6087H8.65217V9.69565ZM8.65217 13.5217H3.86957C3.34129 13.5217 2.91304 13.95 2.91304 14.4783L2.91304 16.3913H8.65217V13.5217ZM18.2174 18.3043C17.8795 18.3043 17.6125 18.3224 17.4059 18.3558C17.3503 18.3649 17.3033 18.3743 17.2641 18.3835C17.3043 18.8747 17.7158 19.2609 18.2174 19.2609C18.719 19.2609 19.1305 18.8747 19.1707 18.3835C19.1315 18.3743 19.0845 18.3649 19.0289 18.3558C18.8223 18.3224 18.5553 18.3043 18.2174 18.3043ZM5.78261 18.3043C5.44475 18.3043 5.17773 18.3224 4.97113 18.3558C4.91547 18.3649 4.86851 18.3743 4.82931 18.3835C4.86953 18.8747 5.28097 19.2609 5.78261 19.2609C6.28424 19.2609 6.69569 18.8747 6.73591 18.3835C6.6967 18.3743 6.64974 18.3649 6.59409 18.3558C6.38749 18.3224 6.12047 18.3043 5.78261 18.3043Z" fill="white"/>
</svg>
