<svg width="25" height="24" viewBox="0 0 25 24" fill="none" xmlns="http://www.w3.org/2000/svg">
<path fill-rule="evenodd" clip-rule="evenodd" d="M2.25 3.83333C2.25 3.3731 2.6231 3 3.08333 3H4.48434C5.48441 3 6.38826 3.59599 6.7822 4.5152L7.20426 5.5H21.13C21.6882 5.5 22.0886 6.03811 21.9282 6.57279L19.9282 13.2395C19.8224 13.5919 19.498 13.8333 19.13 13.8333H7.25C6.78976 13.8333 6.41667 14.2064 6.41667 14.6667C6.41667 15.1269 6.78976 15.5 7.25 15.5H21.4167C21.8769 15.5 22.25 15.8731 22.25 16.3333C22.25 16.7936 21.8769 17.1667 21.4167 17.1667H20.4411C20.5332 17.4273 20.5833 17.7078 20.5833 18C20.5833 19.3807 19.464 20.5 18.0833 20.5C16.7026 20.5 15.5833 19.3807 15.5833 18C15.5833 17.7078 15.6335 17.4273 15.7256 17.1667H12.9411C13.0332 17.4273 13.0833 17.7078 13.0833 18C13.0833 19.3807 11.964 20.5 10.5833 20.5C9.20262 20.5 8.08333 19.3807 8.08333 18C8.08333 17.7078 8.13346 17.4273 8.22559 17.1667H7.25C5.86929 17.1667 4.75 16.0474 4.75 14.6667C4.75 13.286 5.86929 12.1667 7.25 12.1667H7.58333L6.03216 6.99609L5.25029 5.17173C5.11898 4.86533 4.8177 4.66667 4.48434 4.66667H3.08333C2.6231 4.66667 2.25 4.29357 2.25 3.83333ZM9.32338 12.1667H18.5099L20.0099 7.16667H7.82338L9.32338 12.1667ZM10.5833 17.1667C10.1231 17.1667 9.75 17.5398 9.75 18C9.75 18.4602 10.1231 18.8333 10.5833 18.8333C11.0436 18.8333 11.4167 18.4602 11.4167 18C11.4167 17.5398 11.0436 17.1667 10.5833 17.1667ZM18.0833 17.1667C17.6231 17.1667 17.25 17.5398 17.25 18C17.25 18.4602 17.6231 18.8333 18.0833 18.8333C18.5436 18.8333 18.9167 18.4602 18.9167 18C18.9167 17.5398 18.5436 17.1667 18.0833 17.1667Z" fill="#696974"/>
</svg>
