<svg width="48" height="48" viewBox="0 0 48 48" fill="none" xmlns="http://www.w3.org/2000/svg">
<rect width="48" height="48" rx="12" fill="#E9F0F7"/>
<path fill-rule="evenodd" clip-rule="evenodd" d="M14.0011 23.9738C13.9875 24.2761 14.103 24.5721 14.319 24.7881L22.8928 33.3619C23.7333 34.2024 25.0842 34.2141 25.9102 33.3881L33.3881 25.9102C34.2141 25.0842 34.2024 23.7333 33.3619 22.8928L24.7881 14.319C24.5721 14.103 24.2761 13.9875 23.9738 14.0011L14.9992 14.0008C14.4554 14.0253 14.0245 14.4561 14 15L14.0011 23.9738ZM23.6319 16.154H16.154L16.154 23.6319L24.3884 31.8663L31.8663 24.3884L23.6319 16.154ZM22.0142 19.023C22.8546 19.8634 22.8663 21.2143 22.0403 22.0403C21.2143 22.8663 19.8634 22.8546 19.023 22.0142C18.1825 21.1737 18.1708 19.8228 18.9968 18.9968C19.8228 18.1708 21.1737 18.1825 22.0142 19.023Z" fill="#0F1C2A"/>
</svg>
