<svg width="24" height="24" viewBox="0 0 24 24" fill="none" xmlns="http://www.w3.org/2000/svg">
<path d="M7 13C6.44772 13 6 13.4477 6 14C6 14.5523 6.44772 15 7 15H10C10.5523 15 11 14.5523 11 14C11 13.4477 10.5523 13 10 13H7Z" fill="#171725"/>
<path fill-rule="evenodd" clip-rule="evenodd" d="M2 17C2 18.6569 3.34315 20 5 20H19C20.6569 20 22 18.6569 22 17V8C22 6.34315 20.6569 5 19 5H5C3.34315 5 2 6.34315 2 8V17ZM5 7C4.44772 7 4 7.44772 4 8V9H20V8C20 7.44771 19.5523 7 19 7H5ZM19 18C19.5523 18 20 17.5523 20 17V11H4V17C4 17.5523 4.44772 18 5 18H19Z" fill="#171725"/>
</svg>
