<svg width="44" height="44" viewBox="0 0 44 44" fill="none" xmlns="http://www.w3.org/2000/svg">
<rect width="44" height="44" rx="10" fill="#E9F0F7"/>
<path fill-rule="evenodd" clip-rule="evenodd" d="M20 17L30 17V18.5351C28.8044 19.2267 28 20.5194 28 22C28 23.4806 28.8044 24.7733 30 25.4649V27H20V26C20 25.4477 19.5523 25 19 25C18.4477 25 18 25.4477 18 26V27H14L14 25.4649C15.1956 24.7733 16 23.4806 16 22C16 20.5194 15.1956 19.2267 14 18.5351V17H18V18C18 18.5523 18.4477 19 19 19C19.5523 19 20 18.5523 20 18V17ZM19 29H14C12.8954 29 12 28.1046 12 27V26V24C13.1046 24 14 23.1046 14 22C14 20.8954 13.1046 20 12 20V18V17C12 15.8954 12.8954 15 14 15H19H30C31.1046 15 32 15.8954 32 17V18V20C30.8954 20 30 20.8954 30 22C30 23.1046 30.8954 24 32 24V26V27C32 28.1046 31.1046 29 30 29H19ZM19 20C19.5523 20 20 20.4477 20 21V23C20 23.5523 19.5523 24 19 24C18.4477 24 18 23.5523 18 23V21C18 20.4477 18.4477 20 19 20Z" fill="#0F1C2A"/>
</svg>
