<svg width="24" height="25" viewBox="0 0 24 25" fill="none" xmlns="http://www.w3.org/2000/svg">
<path fill-rule="evenodd" clip-rule="evenodd" d="M6.70711 8.79289C6.31658 8.40237 5.68342 8.40237 5.29289 8.79289C4.90237 9.18342 4.90237 9.81658 5.29289 10.2071L11.2925 16.2067C11.2926 16.2068 11.2928 16.207 11.2929 16.2071C11.3417 16.2559 11.3943 16.2986 11.4498 16.3352C11.6193 16.4472 11.8154 16.5021 12.011 16.4999C12.0713 16.4993 12.1316 16.4932 12.191 16.4817C12.3801 16.4451 12.5607 16.3536 12.7071 16.2071L18.7071 10.2071C19.0976 9.81658 19.0976 9.18342 18.7071 8.79289C18.3166 8.40237 17.6834 8.40237 17.2929 8.79289L12 14.0858L6.70711 8.79289Z" fill="#171725"/>
</svg>
