<svg width="22" height="22" viewBox="0 0 22 22" fill="none" xmlns="http://www.w3.org/2000/svg">
<path fill-rule="evenodd" clip-rule="evenodd" d="M12 19C6.47715 19 2 12 2 12C2 12 6.47715 5 12 5C17.5228 5 22 12 22 12C22 12 17.5228 19 12 19ZM6.31925 14.0623C5.55838 13.3265 4.92691 12.5847 4.4688 12C4.92691 11.4153 5.55838 10.6735 6.31925 9.93771C8.0333 8.28015 10.0454 7 12 7C13.9546 7 15.9667 8.28015 17.6807 9.93771C18.4416 10.6735 19.0731 11.4153 19.5312 12C19.0731 12.5847 18.4416 13.3265 17.6807 14.0623C15.9667 15.7198 13.9546 17 12 17C10.0454 17 8.0333 15.7198 6.31925 14.0623ZM3.6833 13.0801C3.68304 13.0804 3.68305 13.0804 3.68333 13.08L3.6833 13.0801ZM13 12C13 12.5523 12.5523 13 12 13C11.4477 13 11 12.5523 11 12C11 11.4477 11.4477 11 12 11C12.5523 11 13 11.4477 13 12ZM15 12C15 13.6569 13.6569 15 12 15C10.3431 15 9 13.6569 9 12C9 10.3431 10.3431 9 12 9C13.6569 9 15 10.3431 15 12Z" fill="#92929D"/>
</svg>
