<svg width="24" height="24" viewBox="0 0 24 24" fill="none" xmlns="http://www.w3.org/2000/svg">
<path fill-rule="evenodd" clip-rule="evenodd" d="M12.5758 13.8132L13.2047 13.221L18.526 8.20996L5.32705 8.20996L10.0146 13.0254L10.5815 13.6078V14.4205V19.3553L12.5758 18.3309V14.677V13.8132ZM13.1189 18.052L13.1177 18.0526L13.1189 18.052ZM8.58147 14.4205L8.58147 20.9931C8.58147 21.7413 9.37288 22.2245 10.0384 21.8827L14.0327 19.831C14.3661 19.6597 14.5758 19.3163 14.5758 18.9415V14.677L21.7322 7.93798C22.3914 7.31724 21.9521 6.20996 21.0466 6.20996L2.95805 6.20996C2.07362 6.20996 1.62458 7.27374 2.24149 7.90749L8.58147 14.4205Z" fill="#171725"/>
<path d="M3 5C3 3.89543 3.89543 3 5 3L19 3C20.1046 3 21 3.89543 21 5V7.31494L3 7.31493L3 5Z" stroke="#171725" stroke-width="2"/>
</svg>
