<svg width="25" height="24" viewBox="0 0 25 24" fill="none" xmlns="http://www.w3.org/2000/svg">
<path fill-rule="evenodd" clip-rule="evenodd" d="M7.54971 4L5.32749 9H6.24996H18.25H19.1724L16.9502 4H7.54971ZM3.78872 11H4.24996V20C4.24996 21.1046 5.14539 22 6.24996 22H11.26H13.24H18.25C19.3545 22 20.25 21.1046 20.25 20V11H20.7112C21.4349 11 21.9189 10.2551 21.625 9.59386L18.5139 2.59386C18.3534 2.23273 17.9953 2 17.6001 2H6.89984C6.50465 2 6.14652 2.23273 5.98602 2.59386L2.87491 9.59386C2.58101 10.2551 3.06506 11 3.78872 11ZM15.2499 20H18.25V11H6.24996V20H9.24999C9.24997 19.9967 9.24996 19.9933 9.24996 19.99V16.01C9.24996 14.8999 10.1499 14 11.26 14H13.24C14.3501 14 15.25 14.8999 15.25 16.01V19.99C15.25 19.9933 15.25 19.9967 15.2499 20ZM11.26 20H13.24C13.2455 20 13.25 19.9955 13.25 19.99V16.01C13.25 16.0045 13.2455 16 13.24 16H11.26C11.2544 16 11.25 16.0045 11.25 16.01V19.99C11.25 19.9955 11.2544 20 11.26 20Z" fill="#101C2C"/>
</svg>
