<svg width="24" height="25" viewBox="0 0 24 25" fill="none" xmlns="http://www.w3.org/2000/svg">
<path fill-rule="evenodd" clip-rule="evenodd" d="M15.7071 7.20711C16.0976 6.81658 16.0976 6.18342 15.7071 5.79289C15.3166 5.40237 14.6834 5.40237 14.2929 5.79289L8.29328 11.7925C8.29315 11.7926 8.29302 11.7928 8.29289 11.7929C8.24408 11.8417 8.20136 11.8943 8.16475 11.9498C8.05281 12.1193 7.99791 12.3154 8.00006 12.511C8.00072 12.5713 8.0068 12.6316 8.01831 12.691C8.05492 12.8801 8.14645 13.0607 8.29289 13.2071L14.2929 19.2071C14.6834 19.5976 15.3166 19.5976 15.7071 19.2071C16.0976 18.8166 16.0976 18.1834 15.7071 17.7929L10.4142 12.5L15.7071 7.20711Z" fill="#171725"/>
</svg>
