<svg width="24" height="24" viewBox="0 0 24 24" fill="none" xmlns="http://www.w3.org/2000/svg">
<path d="M6.35615 14.518C7.06989 15.7084 7.99731 16.8552 8.958 17.8778C7.97584 16.8323 7.06012 15.6899 6.36035 14.525C6.35895 14.5227 6.35755 14.5203 6.35615 14.518ZM6.35615 14.518C5.66387 13.3641 5.14849 12.1299 5.03754 10.9095C5.14601 12.1026 5.64502 13.332 6.35615 14.518ZM15 10C15 11.6569 13.6569 13 12 13C10.3431 13 9 11.6569 9 10C9 8.34315 10.3431 7 12 7C13.6569 7 15 8.34315 15 10ZM15.1253 17.8778C16.1074 16.8323 17.0232 15.6899 17.7229 14.525C18.4173 13.369 18.9346 12.1324 19.0458 10.9095C18.8284 13.3002 17.0431 15.8362 15.1253 17.8778Z" stroke="#171725" stroke-width="2"/>
</svg>
