<svg width="22" height="22" viewBox="0 0 22 22" fill="none" xmlns="http://www.w3.org/2000/svg">
<path fill-rule="evenodd" clip-rule="evenodd" d="M15 8V9H9V8C9 6.34315 10.3431 5 12 5C13.6569 5 15 6.34315 15 8ZM7 9V8C7 5.23858 9.23858 3 12 3C14.7614 3 17 5.23858 17 8V9H18C19.1046 9 20 9.89543 20 11V19C20 20.1046 19.1046 21 18 21H6C4.89543 21 4 20.1046 4 19V11C4 9.89543 4.89543 9 6 9H7ZM17 11H15H9H7H6V19H18V11H17ZM13 15.7324C13.5978 15.3866 14 14.7403 14 14C14 12.8954 13.1046 12 12 12C10.8954 12 10 12.8954 10 14C10 14.7403 10.4022 15.3866 11 15.7324V17C11 17.5523 11.4477 18 12 18C12.5523 18 13 17.5523 13 17V15.7324Z" fill="#92929D"/>
</svg>
