<svg width="143" height="143" viewBox="0 0 143 143" fill="none" xmlns="http://www.w3.org/2000/svg">
<rect width="143" height="143" rx="71.5" fill="#2ECC71"/>
<g clip-path="url(#clip0_93_18)">
<path d="M84.7124 71.5002C82.5999 71.5002 80.6124 70.3752 79.5374 68.5752L71.4999 55.2502L63.4749 68.5752C62.3874 70.3877 60.3999 71.5127 58.2874 71.5127C57.7249 71.5127 57.1624 71.4377 56.6249 71.2752L39.4999 66.3752V88.6252C39.4999 90.4627 40.7499 92.0627 42.5249 92.5002L69.5499 99.2627C70.8249 99.5752 72.1624 99.5752 73.4249 99.2627L100.475 92.5002C102.25 92.0502 103.5 90.4502 103.5 88.6252V66.3752L86.3749 71.2627C85.8374 71.4252 85.2749 71.5002 84.7124 71.5002ZM111.287 57.4752L104.85 44.6252C104.462 43.8502 103.625 43.4002 102.762 43.5127L71.4999 47.5002L82.9624 66.5127C83.4374 67.3002 84.3874 67.6752 85.2749 67.4252L110.012 60.3627C111.25 60.0002 111.85 58.6252 111.287 57.4752ZM38.1499 44.6252L31.7124 57.4752C31.1374 58.6252 31.7499 60.0002 32.9749 60.3502L57.7124 67.4127C58.5999 67.6627 59.5499 67.2877 60.0249 66.5002L71.4999 47.5002L40.2249 43.5127C39.3624 43.4127 38.5374 43.8502 38.1499 44.6252Z" fill="white"/>
</g>
<defs>
<clipPath id="clip0_93_18">
<rect width="80" height="64" fill="white" transform="translate(31.5 39.5)"/>
</clipPath>
</defs>
</svg>
