<svg width="52" height="52" viewBox="0 0 52 52" fill="none" xmlns="http://www.w3.org/2000/svg">
<rect width="52" height="52" rx="26" fill="#E9F0F7"/>
<path d="M20 22C20 21.4477 20.4477 21 21 21L31 21C31.5523 21 32 21.4477 32 22C32 22.5523 31.5523 23 31 23L21 23C20.4477 23 20 22.5523 20 22Z" fill="#0F1C2A"/>
<path d="M21 25C20.4477 25 20 25.4477 20 26C20 26.5523 20.4477 27 21 27L27 27C27.5523 27 28 26.5523 28 26C28 25.4477 27.5523 25 27 25L21 25Z" fill="#0F1C2A"/>
<path fill-rule="evenodd" clip-rule="evenodd" d="M19 16C17.3431 16 16 17.3431 16 19V29C16 30.6569 17.3431 32 19 32H28.9101C29.088 32 29.2627 32.0475 29.4162 32.1375L34.494 35.1165C35.1606 35.5076 36 35.0268 36 34.2539V19C36 17.3431 34.6569 16 33 16H19ZM33 18H19C18.4477 18 18 18.4477 18 19V29C18 29.5523 18.4477 30 19 30H28.9101C29.4438 30 29.9679 30.1424 30.4282 30.4124L34 32.5079V19C34 18.4477 33.5523 18 33 18Z" fill="#0F1C2A"/>
</svg>
