<svg width="24" height="24" viewBox="0 0 24 24" fill="none" xmlns="http://www.w3.org/2000/svg">
<path d="M19.0349 7.54952C18.8803 7.37354 18.7085 7.21399 18.5221 7.07334C18.5986 6.46435 18.5457 5.84577 18.3669 5.25929C18.1882 4.67281 17.8876 4.13205 17.4857 3.67347C16.5152 2.56285 14.861 2 12.5686 2H7.00546C6.60356 2.00109 6.21512 2.14723 5.90954 2.41231C5.60396 2.67739 5.40114 3.04416 5.33731 3.44709L3.01867 18.3618C2.98586 18.5617 2.99639 18.7665 3.04951 18.9619C3.10263 19.1572 3.19708 19.3385 3.32625 19.493C3.45543 19.6475 3.61623 19.7715 3.79746 19.8564C3.97868 19.9413 4.17596 19.9851 4.37555 19.9847H6.76066L6.68725 20.4579C6.65756 20.6482 6.66885 20.8428 6.72035 21.0283C6.77185 21.2138 6.86233 21.3857 6.98556 21.5323C7.10879 21.6789 7.26184 21.7966 7.43417 21.8773C7.6065 21.958 7.79401 21.9999 7.9838 22H10.8795C11.2546 22.003 11.6185 21.8701 11.9058 21.6253C12.1931 21.3804 12.385 21.0395 12.4471 20.6638L13.0207 16.9991L13.0303 16.9494H13.2978C16.9078 16.9494 19.1626 15.1374 19.8201 11.7106C20.0206 11.0031 20.0541 10.2577 19.9176 9.53468C19.7812 8.81168 19.4788 8.13155 19.0349 7.54952ZM7.75911 13.5492L7.11945 17.6721L7.04218 18.1665H4.86169L7.09202 3.81818H12.5686C14.3015 3.81818 15.5386 4.18572 16.1427 4.87641C16.4279 5.21309 16.6268 5.61605 16.7217 6.04953C16.8167 6.48301 16.8047 6.93359 16.687 7.36126L16.6703 7.4633C16.6594 7.53282 16.6496 7.60074 16.6315 7.68713C16.4588 8.98614 15.8195 10.1745 14.8363 11.024C13.7326 11.8034 12.4024 12.1823 11.0605 12.0994H9.42814C9.02506 12.0981 8.6349 12.2436 8.3286 12.5097C8.0223 12.7757 7.82022 13.1446 7.75911 13.5492ZM18.0627 11.3625C17.5696 13.9336 16.0553 15.1312 13.2978 15.1312H12.865C12.4895 15.1282 12.1253 15.2614 11.8379 15.5069C11.5505 15.7523 11.3589 16.0938 11.2974 16.47L10.716 20.1738L8.54248 20.1818L8.97056 17.4237L9.5177 13.9211H11.057C11.1973 13.9211 11.3214 13.8997 11.4581 13.8948C11.7794 13.8836 12.0997 13.871 12.4006 13.8331C12.5843 13.8099 12.753 13.7675 12.9291 13.7343C13.1731 13.6885 13.4172 13.6433 13.6463 13.5786C13.8167 13.5304 13.9758 13.4684 14.1379 13.4099C14.3521 13.3327 14.5629 13.2517 14.7624 13.1565C14.9128 13.0846 15.0561 13.0047 15.198 12.9227C15.3869 12.814 15.5699 12.6951 15.7462 12.5665C15.8736 12.4733 15.9986 12.3776 16.1178 12.2747C16.2867 12.1269 16.4472 11.9694 16.5985 11.803C16.6997 11.6934 16.8032 11.587 16.8969 11.4691C17.0523 11.2681 17.1958 11.0578 17.3266 10.8395C17.3951 10.7284 17.471 10.6256 17.534 10.5087C17.7154 10.1717 17.8712 9.82126 18.0002 9.46029C18.008 9.4386 18.0191 9.42029 18.0267 9.39847C18.0302 9.38826 18.0355 9.37977 18.0391 9.36951C18.2165 10.0206 18.2246 10.7073 18.0627 11.3625Z" fill="#171725"/>
</svg>
