<svg width="21" height="21" viewBox="0 0 21 21" fill="none" xmlns="http://www.w3.org/2000/svg">
<path fill-rule="evenodd" clip-rule="evenodd" d="M11.4735 3.8696L11.4748 3.86827L14.3033 1.03984C14.5473 0.795764 14.8862 0.704235 15.2014 0.765254C15.3905 0.801866 15.571 0.893395 15.7175 1.03984L19.9601 5.28248C20.0089 5.3313 20.0517 5.3839 20.0883 5.43936C20.3445 5.82751 20.3018 6.35499 19.9601 6.6967L6.11088 20.5459C5.92334 20.7335 5.66899 20.8388 5.40377 20.8388H1.16113C0.608847 20.8388 0.161133 20.3911 0.161133 19.8388L0.161133 15.5962C0.161133 15.331 0.26649 15.0766 0.454026 14.8891L11.4735 3.8696ZM17.8388 5.98959L16.4246 7.4038L13.5962 4.57538L15.0104 3.16116L17.8388 5.98959ZM15.0104 8.81802L4.98956 18.8388H2.16113L2.16113 16.0104L12.1819 5.98959L15.0104 8.81802Z" fill="#92929D"/>
</svg>
