<svg width="24" height="24" viewBox="0 0 24 24" fill="none" xmlns="http://www.w3.org/2000/svg">
<path fill-rule="evenodd" clip-rule="evenodd" d="M16 6C16 7.86384 14.7252 9.42994 13 9.87398V17C13 17.5523 12.5523 18 12 18C11.4477 18 11 17.5523 11 17L11 9.87398C9.27477 9.42994 8 7.86384 8 6C8 3.79086 9.79086 2 12 2C14.2091 2 16 3.79086 16 6ZM12 8C13.1046 8 14 7.10457 14 6C14 4.89543 13.1046 4 12 4C10.8954 4 10 4.89543 10 6C10 7.10457 10.8954 8 12 8Z" fill="#171725"/>
<path d="M8.75579 14.9535C9.28241 14.7871 9.5744 14.2253 9.40797 13.6987C9.24155 13.172 8.67973 12.8801 8.15312 13.0465C7.02261 13.4038 6.017 13.9301 5.27547 14.6114C4.5313 15.2952 4 16.1912 4 17.2415C4 18.825 5.17973 20.0298 6.5772 20.7802C8.01605 21.5527 9.93507 22 12 22C14.0649 22 15.984 21.5527 17.4228 20.7802C18.8203 20.0298 20 18.825 20 17.2415C20 16.1912 19.4687 15.2952 18.7245 14.6114C17.983 13.9301 16.9774 13.4038 15.8469 13.0465C15.3203 12.8801 14.7585 13.172 14.592 13.6987C14.4256 14.2253 14.7176 14.7871 15.2442 14.9535C16.1809 15.2495 16.9025 15.6533 17.3714 16.0842C17.8377 16.5126 18 16.9106 18 17.2415C18 17.7337 17.6127 18.4081 16.4767 19.0181C15.382 19.6059 13.8011 20 12 20C10.1989 20 8.61796 19.6059 7.52331 19.0181C6.38727 18.4081 6 17.7337 6 17.2415C6 16.9106 6.16235 16.5126 6.62862 16.0842C7.09752 15.6533 7.81913 15.2495 8.75579 14.9535Z" fill="#171725"/>
</svg>
