<svg width="25" height="24" viewBox="0 0 25 24" fill="none" xmlns="http://www.w3.org/2000/svg">
<path fill-rule="evenodd" clip-rule="evenodd" d="M12.75 22C18.2728 22 22.75 17.5228 22.75 12C22.75 6.47715 18.2728 2 12.75 2C7.22715 2 2.75 6.47715 2.75 12C2.75 17.5228 7.22715 22 12.75 22ZM12.75 20C14.5986 20 16.3008 19.373 17.6554 18.32C14.9332 15.6449 10.5668 15.6449 7.84457 18.32C9.19922 19.373 10.9014 20 12.75 20ZM20.75 12C20.75 13.8488 20.1229 15.5511 19.0697 16.9058C17.8086 15.6617 16.2715 14.8654 14.6571 14.517C15.9037 13.8395 16.75 12.5186 16.75 11C16.75 8.79086 14.9591 7 12.75 7C10.5409 7 8.75 8.79086 8.75 11C8.75 12.5186 9.59626 13.8395 10.8429 14.517C9.22853 14.8654 7.69143 15.6617 6.43027 16.9058C5.37713 15.5511 4.75 13.8488 4.75 12C4.75 7.58172 8.33172 4 12.75 4C17.1683 4 20.75 7.58172 20.75 12ZM14.75 11C14.75 12.1046 13.8546 13 12.75 13C11.6454 13 10.75 12.1046 10.75 11C10.75 9.89543 11.6454 9 12.75 9C13.8546 9 14.75 9.89543 14.75 11Z" fill="#696974"/>
</svg>
