<svg width="8" height="14" viewBox="0 0 8 14" fill="none" xmlns="http://www.w3.org/2000/svg">
<path fill-rule="evenodd" clip-rule="evenodd" d="M0.292893 12.2929C-0.0976323 12.6834 -0.0976323 13.3166 0.292892 13.7071C0.683417 14.0976 1.31658 14.0976 1.70711 13.7071L7.70672 7.7075C7.70685 7.70737 7.70698 7.70724 7.70711 7.70711C7.75592 7.65829 7.79864 7.60568 7.83525 7.55023C7.94719 7.38069 8.00209 7.18457 7.99994 6.98895C7.99928 6.92866 7.9932 6.86841 7.98169 6.80901C7.94508 6.61991 7.85355 6.43934 7.70711 6.29289L1.70711 0.292893C1.31658 -0.097632 0.683419 -0.0976321 0.292894 0.292892C-0.0976303 0.683417 -0.0976303 1.31658 0.292894 1.70711L5.58579 7L0.292893 12.2929Z" fill="#92929D"/>
</svg>
