<svg width="25" height="24" viewBox="0 0 25 24" fill="none" xmlns="http://www.w3.org/2000/svg">
<path fill-rule="evenodd" clip-rule="evenodd" d="M16.2633 16.5571C14.8341 17.7517 12.9937 18.4706 10.9853 18.4706C6.43707 18.4706 2.75 14.7835 2.75 10.2353C2.75 5.68707 6.43707 2 10.9853 2C15.5335 2 19.2206 5.68707 19.2206 10.2353C19.2206 12.0085 18.6602 13.6508 17.7068 14.9948C17.8824 15.0496 18.0477 15.1466 18.1868 15.2858L22.4054 19.5043C22.8649 19.9638 22.8649 20.7087 22.4054 21.1681C21.946 21.6276 21.2011 21.6276 20.7416 21.1681L16.5231 16.9495C16.4073 16.8338 16.3208 16.7 16.2633 16.5571ZM16.8676 10.2353C16.8676 13.484 14.234 16.1176 10.9853 16.1176C7.73656 16.1176 5.10294 13.484 5.10294 10.2353C5.10294 6.98656 7.73656 4.35294 10.9853 4.35294C14.234 4.35294 16.8676 6.98656 16.8676 10.2353Z" fill="#696974"/>
</svg>
