<svg width="24" height="24" viewBox="0 0 24 24" fill="none" xmlns="http://www.w3.org/2000/svg">
<rect width="24" height="24" fill="white"/>
<path fill-rule="evenodd" clip-rule="evenodd" d="M15.6364 12C15.6364 14.0083 14.0083 15.6364 12 15.6364C9.99169 15.6364 8.36364 14.0083 8.36364 12C8.36364 9.99169 9.99169 8.36364 12 8.36364C14.0083 8.36364 15.6364 9.99169 15.6364 12ZM13.8182 12C13.8182 13.0042 13.0042 13.8182 12 13.8182C10.9958 13.8182 10.1818 13.0042 10.1818 12C10.1818 10.9958 10.9958 10.1818 12 10.1818C13.0042 10.1818 13.8182 10.9958 13.8182 12Z" fill="#171725"/>
<path fill-rule="evenodd" clip-rule="evenodd" d="M13.8182 2L14.6217 5.21416C14.7313 5.25652 14.8395 5.30145 14.9465 5.34888L17.9414 3.55192L20.5127 6.12321L18.6945 9.15345C18.7262 9.22777 18.7566 9.30272 18.7858 9.37828L22 10.1818V13.8182L18.7858 14.6217C18.7517 14.7101 18.7159 14.7976 18.6784 14.8842L20.5127 17.9414L17.9414 20.5127L14.8842 18.6784C14.7976 18.7159 14.7101 18.7517 14.6217 18.7858L13.8182 22H10.1818L9.37828 18.7858C9.28993 18.7517 9.20242 18.7159 9.11578 18.6784L6.0586 20.5127L3.4873 17.9414L5.32161 14.8842C5.28415 14.7976 5.24832 14.7101 5.21416 14.6217L2 13.8182V10.1818L5.21416 9.37828C5.24337 9.30272 5.27381 9.22777 5.30545 9.15345L3.48731 6.12321L6.0586 3.55192L9.05354 5.34888C9.16046 5.30145 9.26873 5.25652 9.37828 5.21416L10.1818 2H13.8182ZM17.6596 5.84137L18.2232 6.40506L16.6586 9.01283L17.0217 9.86568C17.0454 9.9213 17.0681 9.97738 17.09 10.0339L17.43 10.9135L20.1818 11.6014V12.3986L17.43 13.0865L17.09 13.9661C17.0644 14.0322 17.0376 14.0977 17.0096 14.1625L16.6391 15.0192L18.2232 17.6596L17.6596 18.2232L15.0193 16.6391L14.1625 17.0096C14.0977 17.0376 14.0322 17.0644 13.9661 17.09L13.0865 17.43L12.3986 20.1818H11.6014L10.9135 17.43L10.0339 17.09C9.96781 17.0644 9.90232 17.0376 9.83747 17.0096L8.98073 16.6391L6.34044 18.2232L5.77675 17.6596L7.36093 15.0193L6.99043 14.1625C6.96239 14.0977 6.93557 14.0322 6.91001 13.9661L6.56997 13.0865L3.81818 12.3986V11.6014L6.56997 10.9135L6.91002 10.0339C6.93187 9.97738 6.95465 9.9213 6.97833 9.86567L7.34142 9.01283L5.77676 6.40506L6.34045 5.84137L8.92778 7.39376L9.79088 7.01084C9.87092 6.97533 9.95195 6.94171 10.0339 6.91002L10.9135 6.56997L11.6014 3.81818H12.3986L13.0865 6.56997L13.9661 6.91002C14.0481 6.94171 14.1291 6.97533 14.2091 7.01084L15.0722 7.39377L17.6596 5.84137Z" fill="#171725"/>
</svg>
