<svg width="48" height="48" viewBox="0 0 48 48" fill="none" xmlns="http://www.w3.org/2000/svg">
<rect width="48" height="48" rx="12" fill="#E9F0F7"/>
<path d="M24 18C24.5523 18 25 18.4477 25 19V23H27C27.5523 23 28 23.4477 28 24C28 24.5523 27.5523 25 27 25H24C23.4477 25 23 24.5523 23 24V19C23 18.4477 23.4477 18 24 18Z" fill="#0F1C2A"/>
<path fill-rule="evenodd" clip-rule="evenodd" d="M24 34C29.5228 34 34 29.5228 34 24C34 18.4772 29.5228 14 24 14C18.4772 14 14 18.4772 14 24C14 29.5228 18.4772 34 24 34ZM24 32C28.4183 32 32 28.4183 32 24C32 19.5817 28.4183 16 24 16C19.5817 16 16 19.5817 16 24C16 28.4183 19.5817 32 24 32Z" fill="#0F1C2A"/>
</svg>
