<svg width="16" height="21" viewBox="0 0 16 21" fill="none" xmlns="http://www.w3.org/2000/svg">
<path fill-rule="evenodd" clip-rule="evenodd" d="M8 0.5C7.44772 0.5 7 0.947715 7 1.5V2.58296C4.16229 3.05904 2 5.527 2 8.5L2 11.6707C0.834808 12.0825 0 13.1938 0 14.5L0 17.5H4.12602C4.57006 19.2252 6.13616 20.5 8 20.5C9.86384 20.5 11.4299 19.2252 11.874 17.5L16 17.5V14.5C16 13.1938 15.1652 12.0825 14 11.6707V8.5C14 5.527 11.8377 3.05904 9 2.58296V1.5C9 0.947715 8.55228 0.5 8 0.5ZM13 13.5L3 13.5C2.44772 13.5 2 13.9477 2 14.5V15.5L14 15.5V14.5C14 13.9477 13.5523 13.5 13 13.5ZM12 11.5V8.5C12 6.29086 10.2091 4.5 8 4.5C5.79086 4.5 4 6.29086 4 8.5L4 11.5L12 11.5ZM8 17.5C7.29961 17.5 6.73343 17.5024 6.28122 17.5232C6.63021 18.1082 7.26935 18.5 8 18.5C8.73065 18.5 9.36979 18.1082 9.71878 17.5232C9.26657 17.5024 8.70039 17.5 8 17.5Z" fill="#171725"/>
</svg>
