<svg width="13" height="13" viewBox="0 0 13 13" fill="none" xmlns="http://www.w3.org/2000/svg">
<path d="M11.9706 2.07112C12.3611 1.6806 12.3611 1.04743 11.9706 0.656908C11.5801 0.266384 10.9469 0.266384 10.5564 0.656908L6.31373 4.89955L2.07109 0.656907C1.68057 0.266382 1.0474 0.266383 0.656878 0.656907C0.266354 1.04743 0.266353 1.6806 0.656877 2.07112L4.89952 6.31376L0.656877 10.5564C0.266352 10.9469 0.266352 11.5801 0.656877 11.9706C1.0474 12.3611 1.68057 12.3611 2.07109 11.9706L6.31373 7.72797L10.5564 11.9706C10.9469 12.3611 11.5801 12.3611 11.9706 11.9706C12.3611 11.5801 12.3611 10.9469 11.9706 10.5564L7.72794 6.31376L11.9706 2.07112Z" fill="#FB4141"/>
</svg>
